<svg width="130" height="31" viewBox="0 0 130 31" fill="none" xmlns="http://www.w3.org/2000/svg">
<path d="M13.26 15.75C13.08 14.41 12.71 13.34 12.15 12.54C11.61 11.74 10.91 11.34 10.05 11.34C8.83 11.34 7.86 11.92 7.14 13.08C6.42 14.22 6.06 15.99 6.06 18.39C6.06 21.29 6.62 23.41 7.74 24.75C8.86 26.09 10.31 26.76 12.09 26.76C12.95 26.76 13.71 26.6 14.37 26.28C15.03 25.96 15.5 25.58 15.78 25.14C16.02 25.32 16.22 25.59 16.38 25.95C16.54 26.31 16.62 26.64 16.62 26.94C16.62 27.44 16.36 27.96 15.84 28.5C15.34 29.04 14.61 29.5 13.65 29.88C12.69 30.24 11.58 30.42 10.32 30.42C8.56 30.42 6.95 30.01 5.49 29.19C4.05 28.37 2.9 27.13 2.04 25.47C1.18 23.81 0.75 21.8 0.75 19.44C0.75 17.14 1.14 15.19 1.92 13.59C2.7 11.97 3.79 10.76 5.19 9.96C6.61 9.14 8.26 8.73 10.14 8.73C10.58 8.73 11.08 8.79 11.64 8.91C12.2 9.03 12.69 9.19 13.11 9.39C13.41 9.25 13.85 9.11 14.43 8.97C15.01 8.83 15.46 8.75 15.78 8.73C16.36 10.15 16.65 12.49 16.65 15.75H13.26ZM17.7694 25.77C17.7694 24.43 18.2094 23.37 19.0894 22.59C19.9694 21.81 21.2694 21.42 22.9894 21.42C23.5894 21.42 24.1994 21.48 24.8194 21.6C25.4594 21.72 25.9794 21.88 26.3794 22.08V18.09C26.3794 17.29 26.1794 16.72 25.7794 16.38C25.3794 16.02 24.8394 15.84 24.1594 15.84C23.4994 15.84 22.9594 16 22.5394 16.32C22.9194 16.44 23.1994 16.65 23.3794 16.95C23.5794 17.23 23.6794 17.55 23.6794 17.91C23.6794 18.55 23.4494 19.07 22.9894 19.47C22.5294 19.87 21.9494 20.07 21.2494 20.07C20.4894 20.07 19.8794 19.85 19.4194 19.41C18.9594 18.97 18.7294 18.4 18.7294 17.7C18.7294 17 18.9694 16.34 19.4494 15.72C19.9294 15.1 20.6594 14.6 21.6394 14.22C22.6394 13.84 23.8694 13.65 25.3294 13.65C27.3094 13.65 28.8094 14.06 29.8294 14.88C30.8494 15.68 31.3594 16.86 31.3594 18.42V26.37C31.3594 27.33 31.8194 27.91 32.7394 28.11V29.07C32.4794 29.43 32.0494 29.71 31.4494 29.91C30.8494 30.11 30.2394 30.21 29.6194 30.21C28.2594 30.21 27.2994 29.74 26.7394 28.8C26.2794 29.2 25.7194 29.54 25.0594 29.82C24.3994 30.08 23.6494 30.21 22.8094 30.21C21.3094 30.21 20.0894 29.8 19.1494 28.98C18.2294 28.14 17.7694 27.07 17.7694 25.77ZM26.3794 24.39C26.1594 24.25 25.8894 24.13 25.5694 24.03C25.2694 23.93 24.9794 23.88 24.6994 23.88C24.1394 23.88 23.6794 24.06 23.3194 24.42C22.9594 24.76 22.7794 25.26 22.7794 25.92C22.7794 26.46 22.9594 26.91 23.3194 27.27C23.6794 27.61 24.1594 27.78 24.7594 27.78C25.0594 27.78 25.3494 27.74 25.6294 27.66C25.9294 27.56 26.1794 27.44 26.3794 27.3V24.39ZM40.1527 30.3C39.1727 30.3 38.1927 30.16 37.2127 29.88C36.2527 29.58 35.4627 29.16 34.8427 28.62C34.2227 28.08 33.9127 27.44 33.9127 26.7C33.9127 26 34.1127 25.44 34.5127 25.02C34.9127 24.58 35.4227 24.36 36.0427 24.36C36.6027 24.36 37.0727 24.54 37.4527 24.9C37.8527 25.26 38.0527 25.73 38.0527 26.31C38.0527 26.57 38.0127 26.8 37.9327 27C37.8727 27.18 37.7527 27.38 37.5727 27.6C37.7327 27.76 38.0327 27.89 38.4727 27.99C38.9127 28.07 39.3827 28.11 39.8827 28.11C40.5627 28.11 41.0927 27.99 41.4727 27.75C41.8727 27.49 42.0727 27.16 42.0727 26.76C42.0727 26.22 41.8227 25.76 41.3227 25.38C40.8227 24.98 40.0227 24.49 38.9227 23.91C37.8027 23.31 36.9527 22.82 36.3727 22.44C35.7927 22.04 35.2727 21.51 34.8127 20.85C34.3727 20.17 34.1527 19.34 34.1527 18.36C34.1527 17 34.7127 15.9 35.8327 15.06C36.9527 14.22 38.5027 13.8 40.4827 13.8C42.4227 13.8 43.8627 14.15 44.8027 14.85C45.7627 15.53 46.2427 16.35 46.2427 17.31C46.2427 17.91 46.0427 18.4 45.6427 18.78C45.2627 19.16 44.7927 19.35 44.2327 19.35C43.7127 19.35 43.2627 19.2 42.8827 18.9C42.5227 18.58 42.3427 18.17 42.3427 17.67C42.3427 17.41 42.3827 17.15 42.4627 16.89C42.5427 16.61 42.6527 16.38 42.7927 16.2C42.3927 15.88 41.7927 15.72 40.9927 15.72C40.3527 15.72 39.8527 15.87 39.4927 16.17C39.1327 16.47 38.9527 16.85 38.9527 17.31C38.9527 17.93 39.2027 18.44 39.7027 18.84C40.2027 19.24 41.0027 19.72 42.1027 20.28C43.1427 20.82 43.9627 21.29 44.5627 21.69C45.1627 22.09 45.6827 22.62 46.1227 23.28C46.5627 23.94 46.7827 24.75 46.7827 25.71C46.7827 27.27 46.1427 28.43 44.8627 29.19C43.6027 29.93 42.0327 30.3 40.1527 30.3ZM64.9509 29.19C64.2309 29.85 63.1309 30.18 61.6509 30.18C59.6309 30.18 58.6209 29.55 58.6209 28.29V18.63C58.6209 17.99 58.4409 17.5 58.0809 17.16C57.7409 16.8 57.2709 16.62 56.6709 16.62C56.2709 16.62 55.8509 16.75 55.4109 17.01C54.9909 17.27 54.6809 17.6 54.4809 18V26.76C54.4809 27.34 54.6009 27.76 54.8409 28.02C55.1009 28.26 55.5309 28.38 56.1309 28.38C56.1309 29 55.9009 29.54 55.4409 30H48.8109C48.3509 29.54 48.1209 29 48.1209 28.38C48.7209 28.38 49.1409 28.26 49.3809 28.02C49.6409 27.76 49.7709 27.34 49.7709 26.76V10.5C49.7709 10 49.6309 9.63 49.3509 9.39C49.0709 9.15 48.5409 9.03 47.7609 9.03V7.8C48.4809 7.42 49.3909 7.09 50.4909 6.81C51.6109 6.51 52.5109 6.36 53.1909 6.36C53.6509 6.36 53.9809 6.47 54.1809 6.69C54.3809 6.89 54.4809 7.24 54.4809 7.74V13.65L54.4209 16.05C54.9609 15.35 55.6409 14.78 56.4609 14.34C57.3009 13.9 58.2209 13.68 59.2209 13.68C60.6209 13.68 61.6809 14.06 62.4009 14.82C63.1209 15.56 63.4809 16.66 63.4809 18.12V26.52C63.4809 27.02 63.6009 27.42 63.8409 27.72C64.1009 28.02 64.4609 28.22 64.9209 28.32L64.9509 29.19ZM73.3184 5.34C74.2184 5.34 74.9984 5.53 75.6584 5.91C76.3184 6.29 76.8184 6.76 77.1584 7.32C77.5184 7.86 77.6984 8.4 77.6984 8.94C77.6984 9.68 77.4984 10.3 77.0984 10.8C76.6984 11.3 76.1784 11.55 75.5384 11.55C74.9384 11.55 74.4084 11.34 73.9484 10.92C73.4884 10.48 73.2584 9.98 73.2584 9.42C73.2584 8.7 73.5584 8.12 74.1584 7.68C74.0984 7.58 73.9884 7.5 73.8284 7.44C73.6884 7.36 73.5584 7.32 73.4384 7.32C72.9584 7.32 72.5284 7.65 72.1484 8.31C71.7884 8.97 71.6084 9.73 71.6084 10.59C71.6084 11.17 71.6584 11.73 71.7584 12.27C71.8784 12.81 72.0084 13.25 72.1484 13.59C72.3084 13.93 72.4584 14.1 72.5984 14.1H75.4784C75.4784 15.38 75.3084 16.28 74.9684 16.8H72.4184V26.46C72.4184 26.94 72.4884 27.32 72.6284 27.6C72.7884 27.86 73.0684 28.06 73.4684 28.2C73.8884 28.32 74.5084 28.38 75.3284 28.38C75.3284 29 75.0984 29.54 74.6384 30H66.7184C66.2584 29.54 66.0284 29 66.0284 28.38C66.6284 28.38 67.0484 28.25 67.2884 27.99C67.5484 27.73 67.6784 27.31 67.6784 26.73V16.8H65.8484V14.94C66.5084 14.78 67.0984 14.51 67.6184 14.13C67.4584 13.17 67.3784 12.31 67.3784 11.55C67.3784 9.51 67.9084 7.97 68.9684 6.93C70.0284 5.87 71.4784 5.34 73.3184 5.34ZM78.3989 10.8C78.3989 10.3 78.2489 9.93 77.9489 9.69C77.6689 9.43 77.1389 9.3 76.3589 9.3V8.1C77.0789 7.7 77.9889 7.36 79.0889 7.08C80.1889 6.8 81.0789 6.66 81.7589 6.66C82.2389 6.66 82.5789 6.76 82.7789 6.96C82.9789 7.16 83.0789 7.51 83.0789 8.01V26.73C83.0789 27.35 83.1989 27.78 83.4389 28.02C83.6989 28.26 84.1289 28.38 84.7289 28.38C84.7289 28.94 84.4889 29.48 84.0089 30H77.4389C76.9789 29.5 76.7489 28.96 76.7489 28.38C77.3289 28.38 77.7489 28.26 78.0089 28.02C78.2689 27.76 78.3989 27.33 78.3989 26.73V10.8ZM127.961 14.07C128.361 14.45 128.561 15.05 128.561 15.87C127.981 15.87 127.531 15.97 127.211 16.17C126.911 16.37 126.691 16.73 126.551 17.25L123.881 26.94C123.641 27.8 123.421 28.45 123.221 28.89C123.021 29.33 122.741 29.66 122.381 29.88C122.021 30.1 121.521 30.21 120.881 30.21H118.511L115.691 21.21L114.071 27C113.771 28.1 113.471 28.88 113.171 29.34C112.891 29.78 112.441 30.06 111.821 30.18V30.21H108.761L104.681 17.43C104.481 16.85 104.261 16.45 104.021 16.23C103.801 15.99 103.441 15.87 102.941 15.87C102.941 15.09 103.151 14.49 103.571 14.07H110.321C110.541 14.29 110.711 14.57 110.831 14.91C110.951 15.23 111.011 15.55 111.011 15.87C110.591 15.87 110.251 15.99 109.991 16.23C109.731 16.45 109.601 16.78 109.601 17.22C109.601 17.3 109.611 17.41 109.631 17.55C109.671 17.67 109.701 17.77 109.721 17.85L110.501 21.93L111.401 26.16L112.721 21.93L113.591 18.81C113.891 17.63 114.191 16.78 114.491 16.26C114.791 15.72 115.261 15.45 115.901 15.45L118.211 15.48L119.771 21.9L121.091 26.04L121.751 21.9L122.741 17.67C122.821 17.37 122.861 17.1 122.861 16.86C122.861 16.5 122.761 16.25 122.561 16.11C122.361 15.95 122.061 15.87 121.661 15.87C121.661 15.05 121.851 14.45 122.231 14.07H127.961Z" fill="#21A236"/>
<ellipse cx="93.9655" cy="21.6452" rx="9.03448" ry="8.45161" fill="#FFE600"/>
<path d="M95.4532 21.1704L92.9887 20.5065C92.7035 20.4309 92.505 20.1851 92.505 19.912C92.505 19.5695 92.8062 19.2922 93.1781 19.2922H94.691C94.9694 19.2922 95.2433 19.3699 95.4715 19.5128C95.6107 19.5989 95.7978 19.5779 95.9164 19.4708L96.7105 18.7565C96.8726 18.6115 96.8497 18.3699 96.6695 18.2418C96.1104 17.8384 95.4121 17.6136 94.6956 17.6115V16.6031C94.6956 16.4182 94.5313 16.2669 94.3305 16.2669H93.6003C93.3995 16.2669 93.2352 16.4182 93.2352 16.6031V17.6115H93.1781C91.7245 17.6115 90.5562 18.7607 90.6908 20.1242C90.7867 21.0927 91.5899 21.8805 92.6031 22.1536L94.9421 22.7839C95.2273 22.8616 95.4258 23.1053 95.4258 23.3784C95.4258 23.7209 95.1246 23.9982 94.7527 23.9982H93.2397C92.9613 23.9982 92.6875 23.9205 92.4593 23.7776C92.3201 23.6915 92.133 23.7125 92.0143 23.8196L91.2202 24.5339C91.0582 24.6789 91.081 24.9205 91.2613 25.0487C91.8204 25.452 92.5187 25.6768 93.2352 25.6789V26.6874C93.2352 26.8722 93.3995 27.0235 93.6003 27.0235H94.3305C94.5313 27.0235 94.6956 26.8722 94.6956 26.6874V25.6747C95.759 25.6558 96.7562 25.0739 97.1076 24.1474C97.5982 22.8532 96.7744 21.5255 95.4532 21.1704Z" fill="#A29C21"/>
</svg>
