<svg width="76" height="75" viewBox="0 0 76 75" fill="none" xmlns="http://www.w3.org/2000/svg">
<path d="M37.54 75C58.2507 75 75.04 58.2107 75.04 37.5C75.04 16.7893 58.2507 0 37.54 0C16.8293 0 0.0400085 16.7893 0.0400085 37.5C0.0400085 58.2107 16.8293 75 37.54 75Z" fill="#FFDD67"/>
<path d="M21.29 23.5C21.29 20.5 27.915 21.875 30.04 24C31.29 21.875 30.665 20 30.665 20C30.665 20 28.79 18.625 25.915 18.125V15.375C23.665 14.625 21.165 15.375 21.165 15.375V18C21.165 18 16.665 18.875 16.665 23.5C16.665 29.625 25.915 28.375 25.915 32.25C25.915 35.125 19.665 33.875 16.665 31.625C15.665 33.875 16.665 35.875 16.665 35.875C18.915 36.875 21.165 37.125 21.165 37.125V39.625C21.165 39.625 23.665 40.375 25.915 39.625V37C25.915 37 31.165 36.75 31.165 32.25C31.29 26.375 21.29 26.875 21.29 23.5ZM48.79 23.5C48.79 20.5 55.415 21.875 57.54 24C58.79 21.875 58.165 20 58.165 20C58.165 20 56.29 18.625 53.415 18.125V15.375C51.165 14.625 48.665 15.375 48.665 15.375V18C48.665 18 44.165 18.875 44.165 23.5C44.165 29.625 53.415 28.375 53.415 32.25C53.415 35.125 47.165 33.875 44.165 31.625C43.165 33.875 44.165 35.875 44.165 35.875C46.415 36.875 48.665 37.125 48.665 37.125V39.625C48.665 39.625 51.165 40.375 53.415 39.625V37C53.415 37 58.665 36.75 58.665 32.25C58.79 26.375 48.79 26.875 48.79 23.5ZM57.415 45H17.665C16.79 45 16.29 45.625 16.29 46.25C16.29 55.375 23.79 65 37.54 65C51.29 65 58.79 55.375 58.79 46.25C58.79 45.625 58.29 45 57.415 45Z" fill="#664E27"/>
<path d="M49.04 52.5H37.54H26.04C25.165 52.5 25.04 52.875 25.04 53.5V58.5C25.04 69.5 30.665 75 37.54 75C44.415 75 50.04 69.5 50.04 58.5V53.5C50.04 52.875 49.915 52.5 49.04 52.5Z" fill="#74E063"/>
<path d="M35.915 59.375C35.915 57.375 40.04 58.375 41.415 59.75C42.29 58.375 41.79 57.125 41.79 57.125C41.79 57.125 40.54 56.25 38.79 55.875V54C37.415 53.5 35.79 54 35.79 54V55.75C35.79 55.75 32.915 56.25 32.915 59.375C32.915 63.375 38.79 62.5 38.79 65.125C38.79 67 34.915 66.25 32.915 64.75C32.29 66.25 32.915 67.5 32.915 67.5C34.29 68.125 35.79 68.375 35.79 68.375V70C35.79 70 37.29 70.5 38.79 70V68.25C38.79 68.25 42.04 68 42.04 65.125C42.29 61.25 35.915 61.625 35.915 59.375Z" fill="#449636"/>
<path d="M47.04 52.5V56.875C47.04 67.25 43.29 71.875 37.54 71.875C31.79 71.875 28.04 67.375 28.04 56.875V52.5H27.04V56.875C27.04 68 31.165 73 37.54 73C43.915 73 48.04 68 48.04 56.875V52.5H47.04Z" fill="#449636"/>
</svg>
