<svg width="75" height="75" viewBox="0 0 75 75" fill="none" xmlns="http://www.w3.org/2000/svg">
<path d="M75 37.5C75 58.2104 58.2104 75 37.5 75C16.7896 75 0 58.2104 0 37.5C0 16.7896 16.7896 0 37.5 0C58.2104 0 75 16.7896 75 37.5Z" fill="#FFCC4D"/>
<path d="M45.8333 56.25C45.8333 62.0062 42.102 62.5 37.4999 62.5C32.8958 62.5 29.1666 62.0062 29.1666 56.25C29.1666 50.4979 32.8958 43.75 37.4999 43.75C42.102 43.75 45.8333 50.4979 45.8333 56.25ZM62.4999 31.25C62.2416 31.25 61.9791 31.2021 61.727 31.1C50.8333 26.7437 46.3687 20.1812 46.1833 19.9042C45.5437 18.9458 45.802 17.6521 46.7604 17.0146C47.7166 16.3771 49.0041 16.6312 49.6458 17.5854C49.6854 17.6417 53.6666 23.3875 63.2729 27.2292C64.3416 27.6583 64.8624 28.8687 64.4354 29.9375C64.1083 30.7542 63.3249 31.25 62.4999 31.25V31.25ZM12.4999 31.25C11.6729 31.25 10.8916 30.7542 10.5645 29.9396C10.1374 28.8708 10.6562 27.6583 11.7249 27.2312C21.3333 23.3896 25.3145 17.6438 25.3541 17.5875C25.9958 16.6375 27.2895 16.3854 28.2437 17.025C29.1958 17.6667 29.4541 18.9521 28.8166 19.9063C28.6312 20.1833 24.1666 26.7458 13.2749 31.1021C13.0208 31.2021 12.7583 31.25 12.4999 31.25Z" fill="#664500"/>
<path d="M50 33.3333H58.3334V72.9167L50 72.8208V33.3333ZM16.6667 72.9167L25 72.8208V33.3333H16.6667V72.9167Z" fill="#5DADEC"/>
<path d="M31.248 37.5C30.9355 37.5 30.6167 37.4292 30.3188 37.2813C23.0021 33.6229 15.5896 37.2438 15.5167 37.2813C14.4855 37.8 13.2355 37.3771 12.7209 36.35C12.2063 35.3208 12.623 34.0688 13.6521 33.5542C14.0313 33.3667 23.023 28.9771 32.1834 33.5542C33.2125 34.0688 33.6292 35.3208 33.1146 36.35C32.748 37.0792 32.0125 37.5 31.248 37.5V37.5ZM60.4146 37.5C60.1021 37.5 59.7834 37.4292 59.4855 37.2813C52.1667 33.6229 44.7563 37.2438 44.6834 37.2813C43.6542 37.7979 42.4042 37.3792 41.8875 36.35C41.373 35.3208 41.7896 34.0688 42.8188 33.5542C43.198 33.3667 52.1959 28.9792 61.35 33.5542C62.3792 34.0688 62.7959 35.3208 62.2813 36.35C61.9146 37.0792 61.1792 37.5 60.4146 37.5V37.5Z" fill="#664500"/>
<path d="M37.5 75C58.2107 75 75 73.1345 75 70.8333C75 68.5322 58.2107 66.6667 37.5 66.6667C16.7893 66.6667 0 68.5322 0 70.8333C0 73.1345 16.7893 75 37.5 75Z" fill="#5DADEC"/>
<path d="M37.5 60.4167C40.9517 60.4167 43.75 58.5512 43.75 56.25C43.75 53.9488 40.9517 52.0833 37.5 52.0833C34.0482 52.0833 31.25 53.9488 31.25 56.25C31.25 58.5512 34.0482 60.4167 37.5 60.4167Z" fill="#E75A70"/>
</svg>
